<svg id="Layer_1" data-name="Layer 1" xmlns="http://www.w3.org/2000/svg" xmlns:xlink="http://www.w3.org/1999/xlink" viewBox="0 0 1000 1000"><defs><style>.cls-1{fill:url(#linear-gradient);}.cls-2{fill:url(#linear-gradient-2);}.cls-3{fill:url(#linear-gradient-3);}.cls-4{fill:#fff;}</style><linearGradient id="linear-gradient" x1="118.98" y1="389.79" x2="423.29" y2="479.11" gradientUnits="userSpaceOnUse"><stop offset="0" stop-color="#6b9ed5"/><stop offset="0.43" stop-color="#6a9dd3"/><stop offset="0.62" stop-color="#6697cc"/><stop offset="0.75" stop-color="#608ec0"/><stop offset="0.86" stop-color="#5782ae"/><stop offset="0.95" stop-color="#4c7197"/><stop offset="1" stop-color="#456789"/></linearGradient><linearGradient id="linear-gradient-2" x1="859.55" y1="388.55" x2="606.72" y2="262.89" gradientUnits="userSpaceOnUse"><stop offset="0" stop-color="#f9b233"/><stop offset="0.43" stop-color="#f7b133"/><stop offset="0.6" stop-color="#f0ac31"/><stop offset="0.73" stop-color="#e4a32f"/><stop offset="0.84" stop-color="#d2982b"/><stop offset="0.93" stop-color="#bb8827"/><stop offset="1" stop-color="#a57922"/></linearGradient><linearGradient id="linear-gradient-3" x1="848.13" y1="641.53" x2="462.06" y2="655.16" gradientUnits="userSpaceOnUse"><stop offset="0" stop-color="#f9b233"/><stop offset="0.41" stop-color="#f7b133"/><stop offset="0.58" stop-color="#f0ac31"/><stop offset="0.71" stop-color="#e4a32f"/><stop offset="0.81" stop-color="#d2972b"/><stop offset="0.9" stop-color="#bb8826"/><stop offset="0.98" stop-color="#9f7521"/><stop offset="1" stop-color="#98701f"/></linearGradient></defs><path class="cls-1" d="M527.59,150.11l-26.44,98.68H500c-120.1,0-221.06,79.5-250.17,187.28-1.56,5.78-2.93,11.65-4.06,17.6a246.67,246.67,0,0,0,0,92.66c.06.29.11.61.19.92q1.64,8.46,3.87,16.68a246.31,246.31,0,0,0,35.34,76,257.29,257.29,0,0,0,89.69,80l-26,97a350.51,350.51,0,0,1-194.24-253q-1.53-8.28-2.65-16.68c-.06-.31-.1-.61-.13-.92a354.56,354.56,0,0,1,0-92.66q1.15-8.87,2.78-17.6C184.71,272.75,327.9,149,500,149Q513.92,149,527.59,150.11Z"/><path class="cls-2" d="M845.36,436.07H750.17a247.34,247.34,0,0,0-46.27-90.6,257.36,257.36,0,0,0-78.44-65.19l26-97A351.46,351.46,0,0,1,845.36,436.07Z"/><path class="cls-3" d="M851.18,500a354,354,0,0,1-3,46.33c0,.31-.07.61-.13.92q-1.11,8.4-2.65,16.68a349,349,0,0,1-23.18,76c-45.07,103.48-138.56,181-251.87,204h0A353,353,0,0,1,500,851q-13.72,0-27.22-1l26.44-98.69H500A264.32,264.32,0,0,0,600.4,731.6a258,258,0,0,0,114.43-91.69,246.31,246.31,0,0,0,35.34-76q2.22-8.22,3.87-16.68c.08-.31.13-.63.19-.92H650.06l-.24.92h0a72.86,72.86,0,0,1-71.75,55.15l-38.79-.57,14.61-54.58.26-.92L579,453.67H848.14A354,354,0,0,1,851.18,500Z"/><path class="cls-4" d="M615.42,71.16c24.54,6.59,38.91,32,32.33,56.58l-12.9,48.11-25.79,96.29-44,163.93-4.71,17.6-24.85,92.66-.24.92-4.46,16.68-20.37,76L480.82,750.54l-26.15,97.53-12.91,48.18a46.16,46.16,0,0,1-56.29,32.82l-.89-.23c-24.54-6.59-38.91-32-32.33-56.58l12.9-48.11,25.79-96.27,23.59-88,20.37-76,4.47-16.68.24-.92,24.85-92.66,4.7-17.6,50-186.59,26.15-97.55,12.91-48.18a46.16,46.16,0,0,1,56.29-32.82Z"/></svg>